<svg xmlns="http://www.w3.org/2000/svg" viewBox="0 0 1440 320">
  <path fill="#000b76" fill-opacity="1" d="M0,256L34.3,245.3C68.6,235,137,213,206,202.7C274.3,192,343,192,411,165.3C480,139,549,85,617,101.3C685.7,117,754,203,823,229.3C891.4,256,960,224,1029,176C1097.1,128,1166,64,1234,37.3C1302.9,11,1371,21,1406,26.7L1440,32L1440,320L1405.7,320C1371.4,320,1303,320,1234,320C1165.7,320,1097,320,1029,320C960,320,891,320,823,320C754.3,320,686,320,617,320C548.6,320,480,320,411,320C342.9,320,274,320,206,320C137.1,320,69,320,34,320L0,320Z"></path>
</svg>